<svg xmlns="http://www.w3.org/2000/svg" version="1.1" xmlns:xlink="http://www.w3.org/1999/xlink" xmlns:svgjs="http://svgjs.dev/svgjs" viewBox="0 0 800 800" opacity="0.71"><defs><filter id="bbblurry-filter" x="-100%" y="-100%" width="400%" height="400%" filterUnits="objectBoundingBox" primitiveUnits="userSpaceOnUse" color-interpolation-filters="sRGB">
	<feGaussianBlur stdDeviation="90" x="0%" y="0%" width="100%" height="100%" in="SourceGraphic" edgeMode="none" result="blur"></feGaussianBlur></filter></defs><g filter="url(#bbblurry-filter)"><ellipse rx="111" ry="98.5" cx="135.09364310858757" cy="614.7272920458729" fill="hsl(47, 32%, 70%)"></ellipse><ellipse rx="111" ry="98.5" cx="195.26134311216663" cy="96.26094844079145" fill="hsl(47, 32%, 70%)"></ellipse><ellipse rx="111" ry="98.5" cx="181.16273889990998" cy="220.93218658607043" fill="hsl(129, 31%, 34%)"></ellipse><ellipse rx="111" ry="98.5" cx="162.8776270681651" cy="352.25281720386124" fill="hsl(129, 31%, 34%)"></ellipse><ellipse rx="111" ry="98.5" cx="121.14581426650443" cy="759.8695602017548" fill="hsl(129, 31%, 34%)"></ellipse><ellipse rx="111" ry="98.5" cx="153.64263276904046" cy="476.80220998394554" fill="hsl(47, 32%, 70%)"></ellipse><ellipse rx="111" ry="98.5" cx="564.884644273688" cy="138.53058061050496" fill="hsl(47, 32%, 70%)"></ellipse><ellipse rx="111" ry="98.5" cx="695.4764049589944" cy="199.37786705456472" fill="hsl(129, 31%, 34%)"></ellipse><ellipse rx="111" ry="98.5" cx="559.1195419870744" cy="537.0572260911553" fill="hsl(47, 32%, 70%)"></ellipse><ellipse rx="111" ry="98.5" cx="474.733300174094" cy="667.0399393610929" fill="hsl(129, 31%, 34%)"></ellipse><ellipse rx="111" ry="98.5" cx="420.4434836822031" cy="327.6853583370828" fill="hsl(47, 32%, 70%)"></ellipse><ellipse rx="111" ry="98.5" cx="652.990802545198" cy="429.0754116517711" fill="hsl(129, 31%, 34%)"></ellipse><ellipse rx="111" ry="98.5" cx="721.2030716341826" cy="712.3527547626595" fill="hsl(47, 32%, 70%)"></ellipse></g></svg>